<svg xmlns="http://www.w3.org/2000/svg" viewBox="-30 -109.5 577 577">
  <path d="M81.4915 161.905C90.4928 161.905 97.7897 154.407 97.7897 145.157V22.3317C97.7897 13.0815 105.087 5.58282 114.088 5.58282H201.012C204.702 5.58282 208.172 6.53473 211.215 8.20291C211.616 8.42273 212.109 8.37909 212.455 8.07629C212.907 7.68097 213.585 7.7373 213.969 8.20203L324.408 141.852C334.226 153.734 353.13 146.598 353.13 131.01V16.7487C353.13 7.4986 360.427 -0.00012207 369.428 -0.00012207H434.621C479.628 -0.00012207 516.113 37.4934 516.113 83.7441V178.654C516.113 187.904 508.816 195.403 499.814 195.403H418.323C409.321 195.403 402.025 202.902 402.025 212.152V340.56C402.025 349.81 394.728 357.309 385.726 357.309H293.369C292.644 357.309 291.952 357.163 291.319 356.898C291.138 356.822 290.928 356.847 290.778 356.978C290.568 357.161 290.254 357.134 290.076 356.919L191.704 237.879C181.886 225.997 162.983 233.133 162.983 248.721V273.564C162.983 319.815 126.498 357.309 81.4915 357.309H16.2983C7.29699 357.309 0 349.81 0 340.56L0 178.654C0 169.404 7.29699 161.905 16.2983 161.905H81.4915Z" fill="#00B0FF"/>
</svg>
